<svg xmlns="http://www.w3.org/2000/svg" width="1200" height="420" viewBox="0 0 1200 420" role="img" aria-labelledby="title desc">
  <title id="title">chronicle-agent-context-and-memory</title>
  <desc id="desc">MEMORY PROVIDER</desc>
  <defs>
    <radialGradient id="bg" cx="0.32" cy="0.42" r="0.95" gradientUnits="userSpaceOnUse">
      <stop offset="0" stop-color="#15101F"/>
      <stop offset="0.55" stop-color="#0C0F16"/>
      <stop offset="1" stop-color="#0B0E11"/>
    </radialGradient>
    <linearGradient id="acc" x1="0" y1="0" x2="1" y2="0">
      <stop offset="0" stop-color="#7C5CFF"/>
      <stop offset="1" stop-color="#9B7BFF"/>
    </linearGradient>
    <linearGradient id="panel" x1="0" y1="0" x2="0" y2="1">
      <stop offset="0" stop-color="#161B26"/>
      <stop offset="1" stop-color="#10131B"/>
    </linearGradient>
  </defs>
  <rect width="1200" height="420" fill="url(#bg)"/>
  <rect x="598" y="56" width="1" height="312" fill="#222838"/>
  <text x="64" y="74" font-family="-apple-system,BlinkMacSystemFont,Segoe UI,sans-serif" font-size="12" letter-spacing="3" fill="#7C5CFF">MEMORY PROVIDER</text>
  <text x="62" y="128" font-family="-apple-system,BlinkMacSystemFont,Segoe UI,sans-serif" font-size="50" font-weight="700" fill="#F4F6FB">chronicle-agent-context-and-memory</text>
  <rect x="64" y="146" width="52" height="4" rx="2" fill="url(#acc)"/>
<text x="64" y="176" font-family="-apple-system,BlinkMacSystemFont,Segoe UI,sans-serif" font-size="17" fill="#C7CEDB">Event-sourced memory</text>
<text x="64" y="204" font-family="-apple-system,BlinkMacSystemFont,Segoe UI,sans-serif" font-size="17" fill="#C7CEDB">provider + context engine</text>
<text x="64" y="232" font-family="-apple-system,BlinkMacSystemFont,Segoe UI,sans-serif" font-size="17" fill="#C7CEDB">for Hermes (ex-Elephas)</text>
<circle cx="660" cy="210" r="22" fill="#0E111A" stroke="url(#acc)" stroke-width="2"/>
<line x1="682" y1="210" x2="738" y2="210" stroke="#7C5CFF" stroke-width="3"/>
<circle cx="760" cy="210" r="22" fill="#0E111A" stroke="url(#acc)" stroke-width="2"/>
<line x1="782" y1="210" x2="838" y2="210" stroke="#7C5CFF" stroke-width="3"/>
<circle cx="860" cy="210" r="22" fill="#0E111A" stroke="url(#acc)" stroke-width="2"/>
<line x1="882" y1="210" x2="938" y2="210" stroke="#7C5CFF" stroke-width="3"/>
<circle cx="960" cy="210" r="22" fill="#0E111A" stroke="url(#acc)" stroke-width="2"/>
<line x1="982" y1="210" x2="1038" y2="210" stroke="#7C5CFF" stroke-width="3"/>
<circle cx="1060" cy="210" r="22" fill="#0E111A" stroke="url(#acc)" stroke-width="2"/>
<rect x="660" y="270" width="500" height="60" rx="10" fill="url(#panel)" stroke="#2A3350"/><rect x="682" y="294" width="200" height="12" rx="6" fill="#1C2230"/><rect x="900" y="294" width="160" height="12" rx="6" fill="#1C2230"/>
</svg>